<?xml version="1.0" encoding="UTF-8" standalone="no"?>
<!-- Created with Inkscape (http://www.inkscape.org/) -->

<svg
   width="210mm"
   height="297mm"
   viewBox="0 0 210 297"
   version="1.1"
   id="svg1"
   inkscape:version="1.4.1 (93de688d07, 2025-03-30)"
   sodipodi:docname="Logo Original BW.svg"
   xmlns:inkscape="http://www.inkscape.org/namespaces/inkscape"
   xmlns:sodipodi="http://sodipodi.sourceforge.net/DTD/sodipodi-0.dtd"
   xmlns="http://www.w3.org/2000/svg"
   xmlns:svg="http://www.w3.org/2000/svg">
  <sodipodi:namedview
     id="namedview1"
     pagecolor="#ffffff"
     bordercolor="#000000"
     borderopacity="0.25"
     inkscape:showpageshadow="2"
     inkscape:pageopacity="0.0"
     inkscape:pagecheckerboard="0"
     inkscape:deskcolor="#d1d1d1"
     inkscape:document-units="mm"
     inkscape:zoom="0.93204254"
     inkscape:cx="258.03543"
     inkscape:cy="564.35193"
     inkscape:window-width="1920"
     inkscape:window-height="1011"
     inkscape:window-x="0"
     inkscape:window-y="0"
     inkscape:window-maximized="1"
     inkscape:current-layer="svg1"
     showguides="true" />
  <defs
     id="defs1" />
  <path
     d="m 23.374798,92.068292 v 18.358568 57.96493 l 15.26521,10.19989 v -57.96492 -18.35857 l -0.001,-0.001 -15.26366,-10.198858 z"
     style="display:none;fill:#1a1a1a;stroke:#1a1a1a;stroke-width:0.265;stroke-opacity:1"
     id="path13" />
  <path
     style="display:none;fill:#1a1a1a;stroke:#1a1a1a;stroke-width:0.242466;stroke-dasharray:none;stroke-opacity:1"
     d="M 23.554478,92.289932 104.31438,146.22019 Z"
     id="path17"
     inkscape:label="line" />
  <g
     id="g17"
     inkscape:label="1"
     style="fill:#1a1a1a;stroke:#1a1a1a;stroke-opacity:1">
    <path
       d="M 113.83491,54.597701 73.945357,71.120207 23.374801,92.067249 v 5.16e-4 l 15.264184,10.199375 0.001,-5.1e-4 75.194895,-31.146423 z"
       style="display:inline;fill:#1a1a1a;stroke:#1a1a1a;stroke-width:0.265;stroke-dasharray:none;stroke-opacity:1"
       id="path12" />
    <path
       d="m 22.753851,192.0974 -2.63e-4,-43.17603 2.8e-5,-54.737197 4.77e-4,-1.98e-4 15.264344,10.199145 -8.9e-5,10e-4 3e-4,81.39025 z"
       style="display:inline;fill:#1a1a1a;stroke:#1a1a1a;stroke-width:0.265;stroke-dasharray:none;stroke-opacity:1"
       id="path14"
       inkscape:transform-center-x="-7.6329515"
       inkscape:transform-center-y="48.956994" />
  </g>
  <g
     id="g16"
     inkscape:label="2"
     transform="translate(30.714196,20.626779)"
     style="fill:#1a1a1a;stroke:#1a1a1a;stroke-opacity:1">
    <path
       d="M 113.83491,54.597701 73.945357,71.120207 23.374801,92.067249 v 5.16e-4 l 15.264184,10.199375 0.001,-5.1e-4 75.194895,-31.146423 z"
       style="display:inline;fill:#1a1a1a;stroke:#1a1a1a;stroke-width:0.265;stroke-dasharray:none;stroke-opacity:1"
       id="path15" />
    <path
       d="m 22.938161,192.0974 -2.63e-4,-43.17603 2.8e-5,-54.737197 4.77e-4,-1.98e-4 15.264344,10.199145 -8.9e-5,10e-4 3e-4,81.39025 z"
       style="display:inline;fill:#1a1a1a;stroke:#1a1a1a;stroke-width:0.265;stroke-dasharray:none;stroke-opacity:1"
       id="path16"
       inkscape:transform-center-x="-7.6329515"
       inkscape:transform-center-y="48.956994"
       inkscape:label="path16" />
    <path
       d="m 71.147078,105.62818 -16.961238,7.02593 14.701428,9.82317 0.563273,0.3762 16.961239,-7.02541 z"
       style="display:inline;fill:none;stroke:#1a1a1a;stroke-width:0.265;stroke-opacity:1"
       id="path54"
       transform="translate(-30.714213,-20.626767)" />
  </g>
  <path
     d="m 144.54879,93.294816 -15.2647,6.323123 v 18.442781 l 10.64586,-4.40955 4.61936,-1.91357 z"
     style="display:inline;fill:#1a1a1a;stroke:#1a1a1a;stroke-width:0.265;stroke-opacity:1"
     id="path53"
     inkscape:label="2b" />
  <g
     id="g19"
     inkscape:label="3"
     transform="translate(65.984554,44.158196)"
     style="fill:#1a1a1a;stroke:#1a1a1a;stroke-opacity:1">
    <path
       d="M 113.83491,54.597701 73.945357,71.120207 23.374801,92.067249 v 5.16e-4 l 15.264184,10.199375 0.001,-5.1e-4 75.194895,-31.146423 z"
       style="display:inline;fill:#1a1a1a;stroke:#1a1a1a;stroke-width:0.265;stroke-dasharray:none;stroke-opacity:1"
       id="path18" />
    <path
       d="m 23.031127,192.0974 -2.63e-4,-43.17603 2.8e-5,-54.737197 4.77e-4,-1.98e-4 15.264344,10.199145 -8.9e-5,10e-4 3e-4,81.39025 z"
       style="display:inline;fill:#1a1a1a;stroke:#1a1a1a;stroke-width:0.265;stroke-dasharray:none;stroke-opacity:1"
       id="path19"
       inkscape:transform-center-x="-7.6329515"
       inkscape:transform-center-y="48.956994" />
  </g>
  <g
     id="g21"
     inkscape:label="4"
     transform="rotate(180,101.59703,144.36831)"
     style="display:none;fill:#1a1a1a;stroke:#1a1a1a;stroke-opacity:1">
    <path
       d="M 113.83491,54.597701 73.945357,71.120207 23.374801,92.067249 v 5.16e-4 l 15.264184,10.199375 0.001,-5.1e-4 75.194895,-31.146423 z"
       style="display:inline;fill:#1a1a1a;stroke:#1a1a1a;stroke-width:0.265;stroke-dasharray:none;stroke-opacity:1"
       id="path20" />
    <path
       d="m 23.374865,189.98072 -2.63e-4,-43.17603 2.8e-5,-54.737185 4.77e-4,-1.98e-4 15.264344,10.199133 -8.9e-5,10e-4 3e-4,81.39025 z"
       style="display:inline;fill:#1a1a1a;stroke:#1a1a1a;stroke-width:0.265;stroke-dasharray:none;stroke-opacity:1"
       id="path21"
       inkscape:transform-center-x="-7.6329515"
       inkscape:transform-center-y="48.956994"
       inkscape:label="path21" />
  </g>
  <g
     id="g50"
     inkscape:label="Toplines"
     style="display:none;fill:#1a1a1a;stroke:#1a1a1a;stroke-opacity:1">
    <path
       d="m 40.336556,85.041321 -16.961239,7.025928 15.264185,10.199381 h 5.17e-4 L 54.18584,112.65411 71.147078,105.62818 55.601257,95.241215 Z"
       style="display:inline;fill:#1a1a1a;stroke:#1a1a1a;stroke-width:0.265;stroke-opacity:1"
       id="path50" />
    <path
       d="m 86.41178,115.82807 -16.961239,7.02541 19.972424,13.34544 16.961755,-7.02593 z"
       style="display:inline;fill:#1a1a1a;stroke:#1a1a1a;stroke-width:0.265;stroke-opacity:1"
       id="path49" />
    <path
       d="m 71.147078,105.62818 -16.961238,7.02593 14.701428,9.82317 0.563273,0.3762 16.961239,-7.02541 z"
       style="display:inline;fill:none;stroke:#1a1a1a;stroke-width:0.265;stroke-opacity:1"
       id="path48" />
  </g>
</svg>
